:SAMPLES-PER-SECOND 30
:FULLY-SPECIFIED
:DEGREES
380
root  1.28005 34.5007 28.5634 6.67344 13.2116 -0.814955
LeftUpLeg  -14.5053 5.93958 3.53219
LeftLeg  10.9457 -1.83143 -0.234664
LeftFoot  5.77053 0.0212729 -0.166406
LeftToes  -19.2037 2.60077e-006 -1.42232e-007
Spine  2.87732 4.52775 -2.71444
Spine1  4.9863 9.43805 -5.36154
RightShoulder  0.0760315 7.87056 3.35089
RightArm  -16.0761 18.281 49.0307
RightForeArm  21.3588 48.5584 11.5449
RightHand  -1.46098 -9.2596 18.2523
LeftShoulder1  0.0649118 -0.0855152 -10.753
LeftArm  -20.1595 6.38041 -64.205
LeftForeArm  27.827 -20.5374 -3.78004
LeftHand  0.104519 2.68957 4.42119
HEad  16.8365 -20.6625 -7.24591
RightUpLeg  -8.91401 -9.28577 -1.40467
RightLeg  10.5571 0.710412 0.0869566
RightFoot  1.04386 0.00233958 0.0735959
RightToes  -31.7942 -0.156678 -0.266084
381
root  1.20123 34.501 28.5491 7.19765 14.5324 -0.861124
LeftUpLeg  -15.1076 5.89882 3.56813
LeftLeg  10.4596 -2.99877 -0.357443
LeftFoot  6.25732 0.0305378 -0.30977
LeftToes  -19.6272 2.60077e-006 -1.42232e-007
Spine  2.82602 4.68841 -2.92822
Spine1  4.89076 9.75128 -5.75635
RightShoulder  0.0762105 8.01382 2.54911
RightArm  -11.8327 14.9448 50.8905
RightForeArm  25.4007 49.454 11.9233
RightHand  -1.27638 -7.75235 19.026
LeftShoulder1  0.0657763 -0.0919909 -10.7425
LeftArm  -20.7151 6.89196 -63.6338
LeftForeArm  28.3315 -19.8925 -3.6506
LeftHand  0.107721 2.55165 4.45185
HEad  12.446 -24.7292 -6.481
RightUpLeg  -9.13555 -10.1477 -1.12352
RightLeg  10.0987 0.419362 0.0485101
RightFoot  1.15982 0.00289555 0.076067
RightToes  -31.6394 -0.156157 -0.265824
382
root  1.14129 34.4975 28.5676 7.6123 15.8866 -0.928639
LeftUpLeg  -15.5831 5.63961 3.61483
LeftLeg  10.0393 -3.90036 -0.435378
LeftFoot  6.59767 0.0384435 -0.432368
LeftToes  -19.6085 2.60077e-006 -1.42232e-007
Spine  2.73954 4.70442 -3.06097
Spine1  4.75349 9.75921 -5.98078
RightShoulder  0.0741801 7.91588 2.63207
RightArm  -7.53966 10.0799 52.0041
RightForeArm  29.5473 52.8397 13.4929
RightHand  -1.05232 -6.89526 17.6878
LeftShoulder1  0.0649378 -0.00835415 -10.8804
LeftArm  -22.0367 7.75418 -63.1294
LeftForeArm  29.3998 -18.9783 -3.46873
LeftHand  0.116325 2.69627 4.55813
HEad  7.95279 -28.1949 -5.19467
RightUpLeg  -9.4091 -11.2685 -0.836442
RightLeg  10.0952 0.319582 0.0372731
RightFoot  1.04082 0.00344405 0.0783834
RightToes  -31.4583 -0.155716 -0.265608
383
root  1.1034 34.4802 28.609 7.83481 16.8873 -0.949591
LeftUpLeg  -15.9066 5.03205 3.69179
LeftLeg  9.97989 -4.17184 -0.461169
LeftFoot  6.71234 0.0409113 -0.470803
LeftToes  -19.8392 2.60077e-006 -1.42232e-007
Spine  2.65056 4.5823 -3.04719
Spine1  4.62296 9.49911 -5.92761
RightShoulder  0.0717965 7.74672 3.33834
RightArm  -5.71854 4.84089 52.2463
RightForeArm  37.8947 57.3123 16.0083
RightHand  -0.490551 -2.78259 20.3155
LeftShoulder1  0.0621971 0.240091 -11.6118
LeftArm  -23.5005 9.11218 -62.3119
LeftForeArm  29.9755 -17.9698 -3.27079
LeftHand  0.130155 2.82219 4.89799
HEad  4.30983 -30.242 -4.1636
RightUpLeg  -9.75555 -11.9708 -0.672588
RightLeg  10.6969 0.127614 0.0170164
RightFoot  0.638973 0.00398707 0.0805072
RightToes  -31.3188 -0.155348 -0.265431
384
root  1.08809 34.4604 28.6689 7.84327 17.2396 -0.944299
LeftUpLeg  -16.0598 4.64903 3.78496
LeftLeg  10.3699 -4.15688 -0.488202
LeftFoot  6.46821 0.0394219 -0.448074
LeftToes  -19.7872 2.60077e-006 -1.42232e-007
Spine  2.53021 4.35973 -2.98712
Spine1  4.45757 9.04366 -5.79564
RightShoulder  0.0643974 6.79739 3.96226
RightArm  -0.470733 0.823808 52.1858
RightForeArm  42.2777 61.8172 19.3029
RightHand  -0.122306 -0.911461 15.5442
LeftShoulder1  0.0555857 0.678779 -12.3924
LeftArm  -25.094 10.924 -61.4802
LeftForeArm  30.3543 -16.8391 -3.05179
LeftHand  0.147225 3.0362 5.16913
HEad  1.75258 -30.9126 -3.67242
RightUpLeg  -9.91162 -12.0406 -0.633622
RightLeg  11.3271 -0.125046 -0.0155223
RightFoot  0.168689 0.00452656 0.0824008
RightToes  -30.9871 -0.155046 -0.265289
385
root  1.09788 34.4477 28.7478 7.70845 17.0559 -0.918373
LeftUpLeg  -15.9755 4.63434 3.83723
LeftLeg  10.8707 -4.03025 -0.509173
LeftFoot  6.09594 0.0364786 -0.403075
LeftToes  -20.0846 2.60077e-006 -1.42232e-007
Spine  2.37297 4.11584 -2.94412
Spine1  4.22241 8.56497 -5.73843
RightShoulder  0.0551558 6.06825 4.05488
RightArm  3.00063 -2.70046 52.4988
RightForeArm  47.5501 65.792 23.2212
RightHand  0.0878768 0.879258 11.8729
LeftShoulder1  0.0464189 0.930215 -12.6163
LeftArm  -27.0959 13.1973 -61.1025
LeftForeArm  31.3082 -15.5798 -2.81072
LeftHand  0.158909 3.33892 5.06758
HEad  -0.0821717 -30.6632 -3.38856
RightUpLeg  -9.79305 -11.7961 -0.699444
RightLeg  11.642 -0.206021 -0.0275785
RightFoot  -0.0737446 0.00506454 0.0840266
RightToes  -31.1356 -0.154803 -0.265176
